<svg width="39" height="31" viewBox="0 0 39 31" fill="none" xmlns="http://www.w3.org/2000/svg">
<path d="M9.46104 30.24C7.67121 30.24 6.2068 29.88 5.06782 29.16C3.92884 28.44 2.99324 27.52 2.26104 26.4C1.36612 25.12 0.796632 23.72 0.552564 22.2C0.308496 20.68 0.186462 19.44 0.186462 18.48C0.186462 14.56 1.20341 11 3.23731 7.80001C5.27121 4.60001 8.44409 2 12.756 0L13.8543 2.16C11.3322 3.2 9.13562 4.84 7.26443 7.08C5.4746 9.32 4.57968 11.6 4.57968 13.92C4.57968 14.88 4.70172 15.72 4.94579 16.44C6.24748 15.4 7.75256 14.88 9.46104 14.88C11.5763 14.88 13.4068 15.56 14.9526 16.92C16.4983 18.28 17.2712 20.16 17.2712 22.56C17.2712 24.8 16.4983 26.64 14.9526 28.08C13.4068 29.52 11.5763 30.24 9.46104 30.24ZM30.2068 30.24C28.417 30.24 26.9526 29.88 25.8136 29.16C24.6746 28.44 23.739 27.52 23.0068 26.4C22.1119 25.12 21.5424 23.72 21.2983 22.2C21.0543 20.68 20.9322 19.44 20.9322 18.48C20.9322 14.56 21.9492 11 23.9831 7.80001C26.017 4.60001 29.1899 2 33.5017 0L34.6 2.16C32.078 3.2 29.8814 4.84 28.0102 7.08C26.2204 9.32 25.3254 11.6 25.3254 13.92C25.3254 14.88 25.4475 15.72 25.6915 16.44C26.9932 15.4 28.4983 14.88 30.2068 14.88C32.3221 14.88 34.1526 15.56 35.6983 16.92C37.2441 18.28 38.017 20.16 38.017 22.56C38.017 24.8 37.2441 26.64 35.6983 28.08C34.1526 29.52 32.3221 30.24 30.2068 30.24Z" fill="#473C38"/>
</svg>
